<?xml version="1.0" encoding="utf-8"?>
<!-- Generator: Adobe Illustrator 23.0.6, SVG Export Plug-In . SVG Version: 6.00 Build 0)  -->
<svg version="1.1" id="Слой_1" xmlns="http://www.w3.org/2000/svg" xmlns:xlink="http://www.w3.org/1999/xlink" x="0px" y="0px"
	 viewBox="0 0 60 60" style="enable-background:new 0 0 60 60;" xml:space="preserve">
<style type="text/css">
	.st0{fill:#4DC6F4;}
	.st1{fill:#00AEEF;}
	.st2{fill:#FFFFFF;}
</style>
<circle class="st0" cx="30" cy="30" r="30"/>
<circle class="st1" cx="30" cy="30" r="25"/>
<path class="st2" d="M27,36.5"/>
<path class="st2" d="M43.5,42v-3.6h-4l3.1,3.9c0.2,0.2,0.5,0.2,0.7,0.1C43.4,42.3,43.5,42.2,43.5,42z"/>
<path class="st2" d="M44,26.5h-7v3c0,2.8-2.2,5-5,5c0,0,0,0,0,0h-4v2c0,1.7,1.3,3,3,3h13c1.7,0,3-1.3,3-3v-7
	C47,27.8,45.7,26.5,44,26.5L44,26.5z"/>
<path class="st2" d="M35,26.5v-6c0-1.7-1.3-3-3-3H16c-1.7,0-3,1.3-3,3v9c0,1.7,1.3,3,3,3c0,0,0,0,0,0h16c1.7,0,3-1.3,3-3V26.5z"/>
<path class="st2" d="M17,35.6v-4.1h4.5l-3.6,4.5c-0.2,0.2-0.5,0.3-0.7,0.1C17.1,35.9,17,35.7,17,35.6z"/>
</svg>
